<svg xmlns="http://www.w3.org/2000/svg" viewBox="0 0 224 48"><title>logo-程式勇者村</title><path d="M61.88,15.06c-.85.16-1.37.25-2.63.44a20.89,20.89,0,0,0-1.2-4.28c4.53-.58,8.13-1.51,9.89-2.59l2.56,4,0-.22c.09-1,.13-1.82.13-2.53a18.81,18.81,0,0,0,2.64.13h11A19.49,19.49,0,0,0,87,9.87a22.39,22.39,0,0,0-.35,2.53l-.51,5.86a16.93,16.93,0,0,0-.09,2.52c-.73-.06-1.5-.09-2.65-.09h-11c-1.09,0-2,0-2.66.09A19.25,19.25,0,0,0,70,18.29l.49-5.67c-2.18.8-2.8,1-3.89,1.35l-.3,3.42h1a10.14,10.14,0,0,0,1.9-.13l-.41,4.64a13.15,13.15,0,0,0-2-.12h-.7a10.61,10.61,0,0,0,2.47,3.55l.32-3.62A14.19,14.19,0,0,0,72.5,22H83a29.13,29.13,0,0,0,3.76-.16l-.41,4.64c-1.08-.1-2.07-.13-3.73-.13h-3l-.14,1.57h2.91a28,28,0,0,0,3.25-.13l-.39,4.48A27.7,27.7,0,0,0,82,32.11H79.1L79,33.84h3.43a26.62,26.62,0,0,0,3.75-.16l-.41,4.73A32.6,32.6,0,0,0,82,38.22H70.22a33.43,33.43,0,0,0-3.76.19l.41-4.73a26.12,26.12,0,0,0,3.73.16h3.68l.15-1.73H71.65a28.16,28.16,0,0,0-3.21.13l.39-4.48a23.43,23.43,0,0,0,3.19.13H74.8l.14-1.57H72.06a24.06,24.06,0,0,0-3.28.13A23.63,23.63,0,0,0,66.91,30a9.28,9.28,0,0,1-1.54-2.53c0,.54-.06,1.44-.13,2.17l-.5,5.73a28.9,28.9,0,0,0-.18,3.87h-5a36.06,36.06,0,0,0,.53-3.84L60.4,32c.06-.73.17-1.63.29-2.62A15.27,15.27,0,0,1,57.54,34a20.21,20.21,0,0,0-1.47-4.87,21.42,21.42,0,0,0,4.8-7.32H59.56a12.19,12.19,0,0,0-2.06.16l.41-4.71a11.5,11.5,0,0,0,2.19.16h1.57Zm13,1.56h6.62l.22-2.46H75.07Z"/><path d="M94,25.78c-1.15,0-2.54.06-3.53.12l.4-4.6a35.57,35.57,0,0,0,3.63.16h7.24a35.28,35.28,0,0,0,3.59-.16l-.4,4.6c-1-.06-2.36-.12-3.54-.12h-1.25l-.52,5.92c2.05-.36,3.26-.61,6.1-1.25l-.4,4.54c-6.11,1.38-9.23,1.95-14.09,2.66-1.07.16-1.59.22-2.24.38l-.26-5a45.33,45.33,0,0,0,6-.58l.58-6.65ZM116.48,13.9a18.18,18.18,0,0,0,3.12-.16l-.42,4.87a34.44,34.44,0,0,0-4.15-.19h-3.68a36.43,36.43,0,0,0,.71,9.82,12.45,12.45,0,0,0,1.85,4.54,18.35,18.35,0,0,0,1.3-4.67A15.9,15.9,0,0,0,119,30.48c-.73,3.26-1.41,5.12-2.4,6.59a3.63,3.63,0,0,1-2.88,1.79c-1.85,0-3.8-1.85-5.16-5-1.61-3.61-2.29-8.54-2.1-15.48H94.24c-1.51,0-2.76.06-4.18.19l.43-4.9a35.29,35.29,0,0,0,4.14.19h12a34.72,34.72,0,0,0,.14-4.51h5.28a11.89,11.89,0,0,0-.29,1.89c0,.29-.09,1-.2,2.62h2.94a14.15,14.15,0,0,0-2.19-2.75l3.81-1.85a21.84,21.84,0,0,1,2.59,3.32l-2.61,1.28Z"/><path d="M131.2,15.82c-.56-.44-.81-.6-1.53-1.08l2.06-.9H128.5a35.69,35.69,0,0,0-3.88.13L125,9.52a41,41,0,0,0,4.69.19h13.57a21.31,21.31,0,0,0,4-.19l2.24,2.91a10.63,10.63,0,0,0-1.39.87c-1,.64-3.31,1.95-4.41,2.52h2.07c1.7,0,2.79,0,3.89-.12a29.29,29.29,0,0,0-.41,3.23l-.5,5.66a31.3,31.3,0,0,0-.15,3.17c-.89-.06-1.52-.1-3.19-.1h-7.36c-.07.42-.11.55-.22,1h9.28a20,20,0,0,0,2.41-.1c-.1.42-.16.77-.36,1.89-.63,3.9-1.12,5.57-2,6.69a4.14,4.14,0,0,1-2.69,1.53,25.06,25.06,0,0,1-3.79.19c-.55,0-1.35,0-2.75-.06a15.74,15.74,0,0,0-.85-4.22,36.2,36.2,0,0,0,4.84.32c1.31,0,1.6-.36,1.86-2.24h-7.65a11.92,11.92,0,0,1-4.49,4.22c-2.29,1.28-4.42,1.86-9,2.46a16.52,16.52,0,0,0-2.28-4.19c4.3-.22,5.89-.45,7.71-1.09a7.5,7.5,0,0,0,2.55-1.4H124.8a26.53,26.53,0,0,0-3.11.12l.37-4.25a21.72,21.72,0,0,0,3.09.13H133c.08-.48.09-.61.16-1H127c-1.63,0-2.28,0-3.18.1a29.78,29.78,0,0,0,.41-3.17l.49-5.66a29.34,29.34,0,0,0,.16-3.23c1.08.09,2.16.12,3.86.12Zm-2.28,8.52H134l.1-1.12H129Zm.36-4.07h5.06l.1-1.15h-5.06Zm5.87-6.43c.75.58,1.29,1.06,2,1.73a18.22,18.22,0,0,0,3.13-1.73Zm3.54,9.38-.1,1.12h5.47l.1-1.12Zm.35-4.1-.1,1.15h5.48l.1-1.15Z"/><path d="M157.34,21.81a35.57,35.57,0,0,0-4.08.19l.41-4.7a35,35,0,0,0,4.14.19h6.53l.14-1.63H160c-1.69,0-2.82,0-3.72.12l.4-4.51a30.14,30.14,0,0,0,3.91.19h4.23a11.27,11.27,0,0,0,0-2.62h5.32a11.82,11.82,0,0,0-.43,2.62h1.48a27.85,27.85,0,0,0,3.66-.19l-.24,2.79a33.48,33.48,0,0,0,3.75-4.52l4.14,2.85A20.76,20.76,0,0,0,181,14.16a40.28,40.28,0,0,1-3.49,3.33H179a32.29,32.29,0,0,0,3.82-.19l-.41,4.7a36.59,36.59,0,0,0-4.3-.19h-7c-.68.48-.92.64-2.17,1.44h6.65c1.57,0,2.47,0,3.34-.1a34.42,34.42,0,0,0-.44,3.49l-.74,8.54a28.82,28.82,0,0,0-.15,3.87h-5.09l.11-1.24H162.43l-.11,1.24h-5.08c.23-1.21.4-2.46.53-3.87l.44-5.08c0-.23,0-.26.06-.71-2.76,1.22-2.76,1.22-4,1.7a15.81,15.81,0,0,0-2.13-4.48,57.61,57.61,0,0,0,12-4.8Zm5.45,11.9H173l.12-1.41H162.91Zm.46-5.28h10.24l.12-1.34H163.37Zm7.65-10.94c.75-.58,1.2-.93,2-1.6-.63,0-.86,0-1.53,0h-2l-.15,1.63Z"/><path d="M190.47,12.59a26.62,26.62,0,0,0,.12-3.52h5.25a25.78,25.78,0,0,0-.5,3.52l-.17,1.89h.61a21.06,21.06,0,0,0,2.74-.19l-.43,4.83a25.61,25.61,0,0,0-2.61-.16h-.7v0a18.07,18.07,0,0,0,3.89,5.63,25.53,25.53,0,0,0-2.36,4.61,16.59,16.59,0,0,1-2.19-3.77c0,1.34,0,1.34-.21,3.45l-.55,6.24a36.83,36.83,0,0,0-.15,4H188a36.89,36.89,0,0,0,.54-3.94l.35-4c.17-2,.2-2.34.37-3.49a21.41,21.41,0,0,1-3.71,5.47,26.56,26.56,0,0,0-1.85-4.93,29.47,29.47,0,0,0,6-9.31h-1a26.48,26.48,0,0,0-3.31.19l.42-4.86a25.76,25.76,0,0,0,3.28.19h1.25ZM200.89,30.7a26.89,26.89,0,0,0-2.77-8.25l4.37-2a31.41,31.41,0,0,1,2.81,7.71Zm9.7,3.62c-.33,3.74-1.45,4.48-6.83,4.48-1,0-1.59,0-2.93-.1a12.38,12.38,0,0,0-.89-4.89,32.27,32.27,0,0,0,4.17.35c1.31,0,1.61-.13,1.67-.83L207,19.06h-4.39a32.06,32.06,0,0,0-3.82.19l.42-4.87a28.11,28.11,0,0,0,3.76.2h4.42l.13-1.54a32.52,32.52,0,0,0,.15-3.84H213a25.11,25.11,0,0,0-.53,3.81l-.14,1.57a20.37,20.37,0,0,0,2.77-.2l-.42,4.84a14.74,14.74,0,0,0-2.74-.16Z"/><polygon points="15 28 15 20 15 20 11 18 11 18 11 18 11 22 7 22 7 26 11 26 11 30 15 28"/><polygon points="43 20 43 20 39 20 39 20 39 28 43 28 47 24 43 20"/><polygon points="35.66 19 27 14 18.34 19 18.34 22 23.54 22 27 20 30.46 22 35.66 22 35.66 19"/><polygon points="18.34 26 18.34 29 27 34 35.66 29 35.66 26 30.46 26 30.46 26 27 28 23.54 26 23.54 26 18.34 26"/><polygon points="16.43 16.25 27 10.14 37.14 16 39 16 43 16 43 14.76 41 13.61 29 6.68 27 5.53 25 6.68 13 13.61 12.15 14.1 12.79 14.42 16.43 16.25"/><polygon points="37.14 32 27 37.86 16.43 31.75 12.79 33.58 12.15 33.9 13 34.39 25 41.32 27 42.48 29 41.32 41 34.39 43 33.24 43 32 39 32 37.14 32"/></svg>